<?xml version="1.0" encoding="UTF-8"?>
<!-- Generated by Pixelmator Pro 3.2.2 -->
<svg width="280" height="160" viewBox="0 0 280 160" xmlns="http://www.w3.org/2000/svg" xmlns:xlink="http://www.w3.org/1999/xlink">
    <path id="svgframe" fill="none" stroke="none" d="M 0.073358 -62.922928 L 280.073334 -62.779175 L 279.929962 216.476105 L -0.070012 216.332367 Z"/>
    <g id="Associer">
        <g id="g10">
            <g id="g1">
                <path id="svglogo" fill="#005a00" stroke="none" d="M 212.688812 88.843979 C 212.691162 84.257843 217.532166 82.571777 225.400284 81.730408 C 231.934235 81.009911 237.138947 79.925949 240.528809 77.755379 L 240.525833 83.548286 C 240.522293 90.46241 234.683868 93.82267 226.891418 94.586647 C 223.712708 94.290321 220.38649 94.012321 216.932632 93.758293 C 214.245987 92.734688 212.687714 90.997047 212.688812 88.843979 Z M 62.019127 90.818428 L 95.541985 90.835632 L 98.288345 98.950226 C 83.858513 101.561829 69.492912 105.004166 55.633572 109.345543 Z M 78.746124 41.583839 L 90.466286 75.988373 L 66.988853 75.976318 Z M 153.283722 58.881714 C 162.118698 58.886253 169.254257 66.856552 169.249176 76.752579 C 169.245575 83.751122 165.484024 89.777466 160.055283 92.574173 C 155.967728 92.70845 151.827194 92.894165 147.64595 93.135132 C 141.596802 90.693497 137.296936 84.412544 137.300888 76.736176 C 137.306091 66.598175 144.449707 58.877182 153.283722 58.881714 Z M 255.419769 98.226028 C 255.411362 97.99762 255.402969 97.771019 255.403076 97.557434 L 255.419678 65.209969 C 255.422226 60.262199 253.495102 43.966965 228.202362 43.953979 C 211.864685 43.945595 200.483627 52.750648 198.90419 64.577995 L 214.879745 64.586197 C 216.334824 59.275826 222.871552 56.74485 228.55983 56.747772 C 235.698532 56.751434 239.932159 59.409492 239.930496 62.667686 C 239.927887 67.736359 232.545563 68.940849 222.137695 69.900574 C 208.341888 71.099876 196.600418 74.71492 196.593231 88.71595 C 196.592529 90.106514 196.731781 91.41613 196.976044 92.661324 C 193.151474 92.521202 189.226654 92.417915 185.214844 92.356911 L 185.253082 17.861511 L 169.279419 17.853302 L 169.262192 51.407433 C 164.424393 46.818161 158.131409 44.159409 150.870743 44.155685 C 134.654068 44.147354 121.21386 58.140366 121.204376 76.608246 C 121.200844 83.487022 123.092453 89.753815 126.307396 94.903351 C 122.301018 95.339691 118.27755 95.838547 114.245552 96.400116 L 88.919609 23.847305 L 68.709808 23.836929 L 36.431541 116.082253 C 27.016209 119.768448 17.959543 123.922653 9.423441 128.567307 C 50.748726 110.610245 152.644653 86.324837 267.953003 101.293472 C 267.403046 100.683632 262.93222 99.519073 255.419769 98.226028"/>
            </g>
        </g>
    </g>
    <g id="svgsubtext">
        <path id="Trac" fill="#005a00" stroke="none" d="M 43.095203 142.817276 L 43.101486 130.576584 L 40.64682 130.575333 L 40.640537 142.816025 Z M 54.144848 135.723358 C 53.900135 134.254333 52.91877 133.274582 50.95504 133.273575 C 49.973171 133.273071 49.236771 133.27269 48.500118 133.761932 L 47.763092 134.985626 L 47.763847 133.516754 L 45.554646 133.51561 L 45.54987 142.818542 L 47.759071 142.819672 L 47.761208 138.657837 C 47.762592 135.96489 48.744957 134.98613 49.97229 134.986771 C 51.199627 134.987396 51.690304 135.47728 51.6898 136.456528 C 51.935017 136.946289 51.934765 137.435913 51.934513 137.925537 L 51.931999 142.821808 L 54.386669 142.823074 L 54.389435 137.437164 C 54.389812 136.702728 54.144596 136.212982 54.144848 135.723358 Z M 64.457207 130.342743 C 62.002544 130.341476 60.038059 131.809357 60.03693 134.01268 C 60.035797 136.216003 61.508091 137.196014 63.962509 137.686905 C 65.925987 138.177536 66.416672 138.667419 66.416168 139.646667 C 66.415665 140.625931 65.678886 141.359985 64.451553 141.35936 C 63.224224 141.358734 62.242733 140.623779 61.99802 139.15477 L 59.54335 139.153519 C 59.787441 141.846588 61.505074 143.071548 64.450668 143.073059 C 66.905342 143.07431 69.115166 141.851379 69.116425 139.403244 C 69.117432 137.444733 67.890732 136.220032 65.190842 135.729019 C 63.227367 135.238388 62.491215 134.748383 62.491718 133.769119 C 62.492222 132.789871 63.228874 132.300629 64.210732 132.301117 C 65.438072 132.301758 66.174095 133.036575 66.41893 134.260773 L 68.873596 134.262024 C 68.629265 132.058578 67.157349 130.344116 64.457207 130.342743 Z M 73.536964 135.243683 L 75.500702 135.24469 L 75.501579 133.530991 L 73.537842 133.529984 L 73.538971 131.32666 L 71.084312 131.325394 L 71.083176 133.528717 L 69.610374 133.527954 L 69.609497 135.241669 L 71.082298 135.242416 L 71.080032 139.649063 C 71.079659 140.383514 71.079536 140.628326 71.079285 141.11795 C 71.32412 142.342148 71.814667 143.076843 73.778404 143.07785 C 74.269341 143.078094 74.760277 143.078354 75.251335 142.833786 L 75.25209 141.364899 C 74.024757 141.364273 73.533943 141.119202 73.534325 140.384766 C 73.534447 140.139954 73.534576 139.895142 73.534828 139.405518 Z M 81.883835 133.289444 C 81.14743 133.289063 80.656372 133.53363 80.165314 133.778198 L 79.428162 135.246704 L 79.429047 133.533005 L 76.974373 133.531738 L 76.969597 142.834671 L 79.424271 142.835938 L 79.426529 138.429276 C 79.427788 135.98114 80.410149 135.002396 82.373764 135.248215 L 82.374771 133.289703 C 82.129303 133.289581 82.129303 133.289581 81.883835 133.289444 Z M 87.775032 133.29248 C 84.82943 133.290955 82.8647 135.248474 82.86319 138.186234 C 82.861809 140.879181 84.824402 143.083511 87.770004 143.085022 C 90.961067 143.08667 92.680466 140.884232 92.681854 138.191269 C 92.683357 135.25351 90.966095 133.294113 87.775032 133.29248 Z M 87.770882 141.371323 C 86.298088 141.370575 85.562317 140.146133 85.563316 138.187622 C 85.564323 136.229111 86.301353 135.005417 87.774147 135.006165 C 89.246956 135.006927 90.228195 136.231506 90.227188 138.190018 C 90.226181 140.148529 89.243683 141.372086 87.770882 141.371323 Z M 102.992706 135.748428 C 102.993462 134.279541 101.766632 133.299652 99.802895 133.298645 C 98.82103 133.298141 98.084633 133.29776 97.593445 133.78714 L 96.856422 135.010834 L 96.85717 133.541946 L 94.402512 133.540695 L 94.397736 142.843613 L 96.852394 142.844879 L 96.85453 138.683044 C 96.855919 135.990097 97.592819 135.011215 98.820145 135.011841 C 100.047485 135.012482 100.53817 135.50235 100.783134 136.481735 C 100.782883 136.971375 100.782631 137.460983 100.782379 137.950623 L 100.779861 142.846893 L 103.234528 142.84816 L 103.237289 137.46225 C 103.237671 136.727814 103.237923 136.23819 102.992706 135.748428 Z M 114.530769 133.551025 L 112.076103 133.549759 L 112.075478 134.773834 L 111.339577 133.794205 C 110.848892 133.304321 109.867035 133.303818 109.13063 133.303436 C 106.675964 133.302185 104.711479 134.77005 104.709717 138.197449 C 104.708206 141.135208 106.18013 142.84967 108.880264 142.851059 C 109.862129 142.851563 110.844116 142.607239 111.335175 142.362686 L 112.072205 141.138992 L 112.072083 141.383804 C 112.071831 141.873428 112.071701 142.118256 112.071457 142.60788 C 111.825233 144.07663 110.842987 144.810562 109.370193 144.809814 C 108.142853 144.809174 107.406708 144.319183 107.161743 143.339798 L 107.161743 143.339798 L 104.952545 143.338669 L 104.952545 143.338669 C 105.196884 145.542114 106.669044 146.766937 109.369186 146.768326 C 112.314781 146.769836 114.279266 145.301956 114.526245 142.364319 C 114.526497 141.874695 114.526871 141.140259 114.527252 140.405823 Z M 109.617546 141.137726 C 108.144745 141.136978 107.163498 139.912415 107.164505 137.953888 C 107.165512 135.995392 108.147881 135.016632 109.620689 135.017395 C 110.848015 135.018021 112.074974 135.753098 112.073967 137.711594 L 112.073845 137.956421 C 112.072586 140.404556 110.844872 141.138367 109.617546 141.137726 Z M 130.241135 132.579834 L 130.242142 130.621323 L 119.44162 130.615784 L 119.440613 132.574295 L 123.613541 132.576431 L 123.608261 142.858612 L 126.062927 142.859879 L 126.068207 132.577698 Z M 140.059296 133.564133 L 137.359161 133.562744 L 135.146194 140.906036 L 132.695297 133.560349 L 129.995163 133.55896 L 133.917618 143.353531 L 133.672012 143.598221 C 133.426056 144.577362 132.689529 144.821777 131.953125 144.821411 C 131.707657 144.821274 131.462189 144.821152 131.216721 144.82103 L 131.215836 146.534729 C 131.461304 146.534851 131.95224 146.53511 132.443176 146.535355 C 134.161438 146.53624 135.143677 145.802307 136.126923 143.109863 Z M 146.687027 133.322723 C 145.705154 133.32222 144.72316 133.566528 144.232101 133.811081 L 143.495071 135.034775 L 143.495834 133.565887 L 141.041168 133.564636 L 141.034637 146.294952 L 143.489288 146.296219 L 143.491684 141.644745 L 144.227585 142.62439 C 144.718384 142.869446 145.700134 143.114777 146.436523 143.115143 C 148.891205 143.116409 150.855804 141.403717 150.857559 137.976318 C 150.858948 135.283371 149.387161 133.324097 146.687027 133.322723 Z M 145.946472 141.401199 C 144.719147 141.400574 143.492188 140.665497 143.493317 138.462173 L 143.493561 137.972549 C 143.49469 135.769226 144.722412 135.035416 145.949738 135.036041 C 147.422546 135.036804 148.403793 136.261368 148.402786 138.219879 C 148.401657 140.423203 147.419281 141.401947 145.946472 141.401199 Z M 153.807312 129.898987 C 152.825455 129.898483 152.334137 130.63266 152.333755 131.367111 C 152.333389 132.101547 152.824066 132.591431 153.805939 132.591934 C 154.542328 132.592316 155.033524 132.102936 155.033905 131.3685 C 155.034271 130.634048 154.543716 129.899353 153.807312 129.898987 Z M 155.027985 142.874741 L 155.032761 133.571823 L 152.578094 133.570557 L 152.573318 142.873489 Z M 165.832153 135.780685 C 165.832916 134.311798 164.606094 133.331924 162.642365 133.330902 C 161.660492 133.330414 160.924088 133.330032 160.432907 133.819397 L 159.695877 135.043091 L 159.696625 133.574219 L 157.241974 133.572952 L 157.237198 142.875885 L 159.691849 142.877136 L 159.693985 138.715302 C 159.695374 136.022354 160.432281 135.043472 161.659607 135.044098 C 162.886948 135.044739 163.377625 135.534622 163.622589 136.514008 C 163.622345 137.003632 163.622086 137.493256 163.621841 137.98288 L 163.619324 142.87915 L 166.073975 142.880417 L 166.076752 137.494507 C 166.077118 136.760071 166.077377 136.270447 165.832153 135.780685 Z M 177.370224 133.583282 L 174.915558 133.582031 L 174.914932 134.806091 L 174.179031 133.826462 C 173.688354 133.336578 172.706497 133.336075 171.970093 133.335693 C 169.515427 133.334442 167.550934 134.802322 167.549164 138.229706 C 167.547668 141.16748 169.26506 142.88205 171.719727 142.883316 C 172.701599 142.88382 173.683578 142.639511 174.174637 142.394943 L 174.911667 141.171249 L 174.91153 141.416061 C 174.911285 141.905701 174.911163 142.150513 174.910904 142.640137 C 174.664688 144.108902 173.927902 144.842957 172.209656 144.842072 C 170.982315 144.841446 170.24617 144.35144 170.246674 143.372192 L 170.246674 143.372192 L 167.791992 143.370926 L 167.791992 143.370926 C 168.036331 145.574371 169.508514 146.799194 172.208649 146.800583 C 175.154236 146.802094 177.118729 145.334229 177.365707 142.396576 C 177.365952 141.906952 177.366333 141.172516 177.366714 140.43808 Z M 172.457001 141.169998 C 170.984207 141.169235 170.00296 139.944672 170.003967 137.98616 C 170.004974 136.027649 170.98735 135.048889 172.460144 135.049652 C 173.687469 135.050278 174.914429 135.785355 174.913422 137.743866 L 174.9133 137.988678 C 174.912033 140.436813 173.684326 141.170624 172.457001 141.169998 Z M 199.46373 130.65686 L 196.763596 130.655472 L 194.794464 141.181458 L 192.590546 130.898148 L 189.154007 130.896393 L 186.939667 140.932617 L 184.981201 130.649429 L 182.281067 130.648041 L 185.465851 142.890366 L 188.656921 142.892014 L 190.871262 132.855774 L 192.829849 142.89415 L 196.266388 142.89592 Z M 208.542236 138.005936 C 208.543488 135.5578 207.071808 133.353714 204.126205 133.352203 C 201.180618 133.350693 199.461349 135.308319 199.459839 138.246094 C 199.458206 141.428665 201.421066 143.143372 203.875732 143.144638 C 206.084915 143.145767 208.049286 141.922714 208.541229 139.964447 L 206.086548 139.963196 C 205.840576 140.942322 205.103928 141.431564 204.122055 141.431061 C 202.894745 141.430435 201.913132 140.940308 201.914261 138.736984 L 208.541855 138.740387 C 208.541977 138.495575 208.542099 138.250748 208.542236 138.005936 Z M 204.125336 135.065903 C 205.352661 135.066544 205.843216 135.801239 206.087936 137.270233 L 201.915009 137.268097 C 202.161224 135.799347 202.89801 135.065277 204.125336 135.065903 Z M 223.763931 132.627853 L 223.764938 130.669342 L 212.964401 130.663788 L 212.963394 132.622314 L 217.136322 132.624451 L 217.131042 142.906631 L 219.585709 142.907883 L 219.590988 132.625717 Z M 228.672882 133.364807 C 228.181946 133.364563 227.445419 133.608994 226.954376 133.853561 L 226.217209 135.322067 L 226.218094 133.608368 L 223.763428 133.607101 L 223.758652 142.910034 L 226.213318 142.911285 L 226.215576 138.504639 C 226.216843 136.056503 227.199188 135.077759 229.408279 135.3237 L 229.409271 133.365189 C 229.163818 133.365067 228.91835 133.364929 228.672882 133.364807 Z M 239.227829 133.615051 L 236.773148 133.613785 L 236.770767 138.265244 C 236.769638 140.468567 236.03273 141.447449 234.805389 141.446823 C 233.578064 141.446182 233.087509 140.711502 232.842545 139.732117 C 232.842682 139.487305 232.843048 138.752853 232.84317 138.508041 L 232.845688 133.611771 L 230.391022 133.610504 L 230.38826 138.996414 C 230.387878 139.73085 230.387634 140.22049 230.387375 140.710114 C 230.632095 142.179123 231.858917 143.158997 233.822662 143.160019 C 234.559067 143.160385 235.295578 142.915955 236.032227 142.426697 L 236.769135 141.44783 L 236.768372 142.916718 L 239.223053 142.917969 Z M 244.873688 133.373123 C 242.66449 133.371994 241.191177 134.350494 241.190308 136.064194 C 241.189423 137.777893 242.170914 138.512833 244.134399 139.003464 C 245.606949 139.493851 246.343201 139.739044 246.342819 140.473495 C 246.342438 141.207932 245.605942 141.452362 244.869537 141.451981 C 244.133148 141.451599 243.396866 141.206421 243.152023 139.982224 L 240.697357 139.980957 C 240.941696 142.184418 242.659454 143.164551 244.868668 143.16568 C 247.077835 143.166824 248.796616 142.188446 248.797485 140.474747 C 248.79837 138.761047 247.571533 137.781158 245.608078 137.290527 C 244.135406 137.044968 243.644714 136.555084 243.645096 135.820648 C 243.645355 135.331009 243.891068 134.841507 244.627472 134.841888 C 245.363876 134.84227 245.854553 135.332153 246.099518 136.311523 L 248.554153 136.31279 C 248.30957 134.598969 247.08287 133.374268 244.873688 133.373123 Z M 253.218536 135.335922 L 255.182281 135.336929 L 255.183151 133.62323 L 253.219421 133.622223 L 253.220551 131.4189 L 250.765884 131.417648 L 250.76474 133.620972 L 249.291946 133.620209 L 249.291061 135.333908 L 250.76387 135.334671 L 250.761597 139.741318 C 250.76123 140.475754 250.761108 140.720581 250.760849 141.21019 C 250.760223 142.434265 251.496246 143.169083 253.214508 143.169968 C 253.950912 143.170349 254.441849 143.170593 254.932907 142.926041 L 254.93367 141.457153 C 253.460861 141.45639 253.215515 141.211456 253.215897 140.47702 C 253.216019 140.232208 253.216156 139.987396 253.2164 139.497757 Z"/>
    </g>
</svg>
