<?xml version="1.0" encoding="UTF-8"?>
<!-- Generated by Pixelmator Pro 3.2.2 -->
<svg width="280" height="160" viewBox="0 0 280 160" xmlns="http://www.w3.org/2000/svg"
    xmlns:xlink="http://www.w3.org/1999/xlink">

    <g id="Associer">
        <g id="g10">
            <g id="g1">
                <path id="svglogo" fill="#00d900" stroke="none"
                    d="M 212.688812 88.843979 C 212.691162 84.257843 217.532166 82.571777 225.400284 81.730408 C 231.934235 81.009911 237.138947 79.925949 240.528809 77.755379 L 240.525833 83.548286 C 240.522293 90.46241 234.683868 93.82267 226.891418 94.586647 C 223.712708 94.290321 220.38649 94.012321 216.932632 93.758293 C 214.245987 92.734688 212.687714 90.997047 212.688812 88.843979 Z M 62.019127 90.818428 L 95.541985 90.835632 L 98.288345 98.950226 C 83.858513 101.561829 69.492912 105.004166 55.633572 109.345543 Z M 78.746124 41.583839 L 90.466286 75.988373 L 66.988853 75.976318 Z M 153.283722 58.881714 C 162.118698 58.886253 169.254257 66.856552 169.249176 76.752579 C 169.245575 83.751122 165.484024 89.777466 160.055283 92.574173 C 155.967728 92.70845 151.827194 92.894165 147.64595 93.135132 C 141.596802 90.693497 137.296936 84.412544 137.300888 76.736176 C 137.306091 66.598175 144.449707 58.877182 153.283722 58.881714 Z M 255.419769 98.226028 C 255.411362 97.99762 255.402969 97.771019 255.403076 97.557434 L 255.419678 65.209969 C 255.422226 60.262199 253.495102 43.966965 228.202362 43.953979 C 211.864685 43.945595 200.483627 52.750648 198.90419 64.577995 L 214.879745 64.586197 C 216.334824 59.275826 222.871552 56.74485 228.55983 56.747772 C 235.698532 56.751434 239.932159 59.409492 239.930496 62.667686 C 239.927887 67.736359 232.545563 68.940849 222.137695 69.900574 C 208.341888 71.099876 196.600418 74.71492 196.593231 88.71595 C 196.592529 90.106514 196.731781 91.41613 196.976044 92.661324 C 193.151474 92.521202 189.226654 92.417915 185.214844 92.356911 L 185.253082 17.861511 L 169.279419 17.853302 L 169.262192 51.407433 C 164.424393 46.818161 158.131409 44.159409 150.870743 44.155685 C 134.654068 44.147354 121.21386 58.140366 121.204376 76.608246 C 121.200844 83.487022 123.092453 89.753815 126.307396 94.903351 C 122.301018 95.339691 118.27755 95.838547 114.245552 96.400116 L 88.919609 23.847305 L 68.709808 23.836929 L 36.431541 116.082253 C 27.016209 119.768448 17.959543 123.922653 9.423441 128.567307 C 50.748726 110.610245 152.644653 86.324837 267.953003 101.293472 C 267.403046 100.683632 262.93222 99.519073 255.419769 98.226028" />
            </g>
        </g>
    </g>

</svg>