<?xml version="1.0" encoding="utf-8"?>
<!-- Generator: Adobe Illustrator 24.0.3, SVG Export Plug-In . SVG Version: 6.00 Build 0)  -->
<svg version="1.1" id="Layer_1" xmlns="http://www.w3.org/2000/svg" xmlns:xlink="http://www.w3.org/1999/xlink" x="0px"
	y="0px" viewBox="0 0 300 300" style="enable-background:new 0 0 300 300;" xml:space="preserve">
	<style type="text/css">
		.st0 {
			fill: #ffffff;
		}

		.st1 {
			fill: url(#Oval_1_);
		}
	</style>
	<g>
		<path id="Path" class="st0" d="M143.5,210.8c-5.9,1.7-12,2.4-18.2,2.2c-5.5,0.1-11-0.9-16-3.1c-4.3-2-8.1-4.9-11-8.7
		c-3-4-5.2-8.5-6.4-13.3c-1.4-5.5-2.1-11.2-2.1-16.8c-0.1-6.2,0.8-12.3,2.7-18.2c1.5-4.8,4.1-9.2,7.4-13c3.1-3.4,7-6.1,11.3-7.7
		c4.5-1.8,9.2-2.6,14-2.6c5.4,0,10.9,0.7,16.1,2.3c4,1.1,7.8,2.7,11.4,4.7l6.2-17.2c-0.8-0.4-2.1-1.2-4-2.2
		c-2.3-1.2-4.7-2.1-7.2-2.8c-3.3-1-6.7-1.8-10.2-2.4c-4.3-0.8-8.6-1.1-13-1.1c-7.6-0.1-15.1,1.3-22.2,4c-6.8,2.6-12.9,6.6-18,11.8
		c-5.3,5.4-9.4,11.9-12.1,18.9c-3.1,8.2-4.6,17-4.4,25.7c-0.2,8.7,1.1,17.4,3.8,25.7c2.3,7,6.1,13.5,11,18.9
		c4.9,5.2,10.9,9.2,17.6,11.7c7.5,2.8,15.4,4.1,23.4,4c4.2,0,8.4-0.2,12.5-0.7c3.6-0.4,7.1-1.1,10.5-2c2.7-0.7,5.4-1.6,8.1-2.6
		c1.9-0.7,3.7-1.6,5.4-2.7l-5.7-17.3C150.9,208.2,147.2,209.6,143.5,210.8L143.5,210.8z" />

		<radialGradient id="Oval_1_" cx="-722.8217" cy="742.7681" r="0.7225"
			gradientTransform="matrix(21.9 0 0 -21.9 15846.1162 16417.541)" gradientUnits="userSpaceOnUse">
			<stop offset="3.000000e-02" style="stop-color:#D7ED35" />
			<stop offset="0.2" style="stop-color:#D1E82E" />
			<stop offset="0.45" style="stop-color:#C0DA1B" />
			<stop offset="0.71" style="stop-color:#A8C700" />
		</radialGradient>
		<circle id="Oval" class="st1" cx="16.3" cy="150.9" r="15.8" />
		<path id="Path_6_" class="st0" d="M296.8,165c-11.6-59-57.6-105.2-116.6-117C126.1,37.1,70.3,56.7,35,99.1c-3.4,4-6.5,8.2-9.5,12.6
		l-0.1,0.2v18.1l1-0.5l14.9-8.6c1.6-2.4,3.3-4.8,5-7.2l0.1-0.1c1.4-1.8,2.8-3.7,4.3-5.4c25.2-30.1,62.3-47.6,101.5-48
		c1.6,0,3.2-0.1,4.8-0.1c42.3,0,82.3,19,109.1,51.8c26.8,32.7,37.5,75.7,29.1,117.2c0.5-2.1,1-4.3,1.4-6.4
		C300.4,203.5,300.5,184,296.8,165L296.8,165z" />
		<g>
			<path class="st0" d="M171,136.5c8.3-1.4,19.7-2.5,35.1-2.5c16.7,0,29,3.4,37,9.8c7.5,5.9,12.3,15.3,12.3,26.6
			c0,11.4-3.7,20.7-10.7,27.2c-9.2,8.7-23.4,12.9-39.7,12.9c-4.3,0-8.1-0.2-11.2-0.8V255H171V136.5z M193.7,192.4
			c2.9,0.7,6.6,1,11.2,1c17.1,0,27.6-8.2,27.6-22.2c0-13.2-9.7-20.3-25.6-20.3c-6.3,0-10.8,0.5-13.3,1V192.4z" />
		</g>
	</g>
</svg>