<?xml version="1.0" encoding="UTF-8" standalone="no"?>
<svg
   version="1.1"
   id="Layer_1"
   x="0px"
   y="0px"
   width="138.58299"
   height="160"
   viewBox="0 0 138.58299 160"
   enable-background="new 0 0 256 256"
   xml:space="preserve"
   xmlns="http://www.w3.org/2000/svg"
   xmlns:svg="http://www.w3.org/2000/svg"><defs
   id="defs13" />
	<path
   fill="#36a2eb"
   d="m 134.562,80.556 c -22.368,0.439 -17.709,14.598 -33.473,18.18 -16.014001,3.638 -18.542001,-39.111 -34.552001,-39.111 -16.012,0 -19.559,41.525 -39.608,70.034 l -0.571,0.808 42.985,24.813 L 134.563,117.63 V 80.556 Z"
   id="path2" />
	<path
   fill="#ffce56"
   d="m 134.562,79.267 c -7.488,-9.61 -12.567,-20.658 -23.494,-20.658 -19.338001,0 -14.249001,31.545 -35.620001,31.545 -21.374,0 -23.62,-33.931 -47.833,-2.035 -7.715,10.163 -13.925,21.494 -18.8019996,32.218 L 69.340999,155.279 134.561,117.629 V 79.267 Z"
   id="path4" />
	<path
   opacity="0.8"
   fill="#fe6184"
   d="M 4.1209994,92.334 C 11.458999,72.014 14.624999,55.556 28.633999,55.556 c 21.37,0 26.459,60.038 44.778,53.93 18.318,-6.105 16.283,-38.668 44.779001,-38.668 5.423,0 10.962,3.323 16.371,8.699 v 38.112 L 69.341999,155.279 4.1199994,117.629 V 92.334 Z"
   id="path6" />
	<path
   fill="#e7e9ed"
   d="M 69.290999,160 -6.4086914e-7,120 V 40 L 69.290999,0 138.583,40 v 80 z M 8.1409994,115.301 69.290999,150.601 130.442,115.301 V 44.7 L 69.290999,9.4 8.1409994,44.7 Z"
   id="path8" />
</svg>
