<?xml version="1.0" encoding="utf-8"?>
<!DOCTYPE svg PUBLIC "-//W3C//DTD SVG 1.1//EN" "http://www.w3.org/Graphics/SVG/1.1/DTD/svg11.dtd">
<svg version="1.1" id="Layer_1" xmlns="http://www.w3.org/2000/svg" xmlns:xlink="http://www.w3.org/1999/xlink" x="0px"
	y="0px" width="256px" height="256px" viewBox="0 0 256 256" enable-background="new 0 0 256 256" xml:space="preserve">
	<path fill="#36A2EB" d="M194.415,96.556c-22.368,0.439-17.709,14.598-33.473,18.18c-16.014,3.638-18.542-39.111-34.552-39.111
	c-16.012,0-19.559,41.525-39.608,70.034l-0.571,0.808l42.985,24.813l65.22-37.65V96.556z" />
	<path fill="#FFCE56" d="M194.415,95.267c-7.488-9.61-12.567-20.658-23.494-20.658c-19.338,0-14.249,31.545-35.62,31.545
	c-21.374,0-23.62-33.931-47.833-2.035c-7.715,10.163-13.925,21.494-18.802,32.218l60.528,34.942l65.22-37.65V95.267z" />
	<path opacity="0.8" fill="#FE6184"
		d="M63.974,108.334c7.338-20.32,10.504-36.778,24.513-36.778c21.37,0,26.459,60.038,44.778,53.93
	c18.318-6.105,16.283-38.668,44.779-38.668c5.423,0,10.962,3.323,16.371,8.699v38.112l-65.22,37.65l-65.222-37.65V108.334z" />
	<path fill="#E7E9ED" d="M129.144,176l-69.291-40V56l69.291-40l69.292,40v80L129.144,176z M67.994,131.301l61.15,35.3l61.151-35.3
	V60.7l-61.151-35.3l-61.15,35.3V131.301z" />
</svg>