<?xml version="1.0" encoding="UTF-8" standalone="no"?>
<svg
   width="2184"
   height="2495.9963"
   viewBox="0 0 256 292.53077"
   preserveAspectRatio="xMidYMid"
   version="1.1"
   id="svg19"
   xmlns="http://www.w3.org/2000/svg"
   xmlns:svg="http://www.w3.org/2000/svg">
  <defs
     id="defs23" />
  <path
     d="M 226.011,-0.02014652 H 29.99 C 13.459,-0.02014652 0,13.437853 0,30.114853 V 227.89285 c 0,16.677 13.458,30.135 29.989,30.135 h 165.888 l -7.754,-27.063 18.725,17.408 17.7,16.384 31.452,27.794 V 30.114853 c 0,-16.677 -13.458,-30.13499952 -29.989,-30.13499952 z M 169.545,191.02985 c 0,0 -5.266,-6.291 -9.655,-11.85 19.164,-5.413 26.478,-17.408 26.478,-17.408 -5.998,3.95 -11.703,6.73 -16.823,8.63 -7.314,3.073 -14.336,5.12 -21.211,6.291 -14.044,2.633 -26.917,1.902 -37.888,-0.146 -8.339,-1.61 -15.507,-3.95 -21.504,-6.29 -3.365,-1.317 -7.022,-2.926 -10.68,-4.974 -0.438,-0.293 -0.877,-0.439 -1.316,-0.732 -0.292,-0.146 -0.439,-0.292 -0.585,-0.438 -2.633,-1.463 -4.096,-2.487 -4.096,-2.487 0,0 7.022,11.703 25.6,17.261 -4.388,5.56 -9.801,12.142 -9.801,12.142 -32.33,-1.024 -44.617,-22.235 -44.617,-22.235 0,-47.104 21.065,-85.284997 21.065,-85.284997 21.065,-15.799 41.106,-15.36 41.106,-15.36 l 1.463,1.756 c -26.331,7.605 -38.473,19.163 -38.473,19.163 0,0 3.218,-1.755 8.63,-4.242 15.653,-6.876 28.088,-8.777 33.208,-9.216 0.877,-0.147 1.609,-0.293 2.487,-0.293 a 123.776,123.776 0 0 1 29.55,-0.292 c 13.896,1.609 28.818,5.705 44.031,14.043 0,0 -11.556,-10.971 -36.425,-18.578 l 2.048,-2.34 c 0,0 20.041,-0.44 41.106,15.36 0,0 21.066,38.179997 21.066,85.283997 0,0 -12.435,21.211 -44.764,22.235 z m -68.023,-68.316 c -8.338,0 -14.92,7.314 -14.92,16.237 0,8.924 6.728,16.238 14.92,16.238 8.339,0 14.921,-7.314 14.921,-16.238 0.147,-8.923 -6.582,-16.237 -14.92,-16.237 m 53.394,0 c -8.339,0 -14.922,7.314 -14.922,16.237 0,8.924 6.73,16.238 14.922,16.238 8.338,0 14.92,-7.314 14.92,-16.238 0,-8.923 -6.582,-16.237 -14.92,-16.237"
     fill="#7289da"
     id="path17" />
  <path
     style="fill:#ffffff;stroke-width:0.36"
     d="m 83.198648,190.52839 c -13.34168,-1.3946 -25.290124,-6.70703 -33.85552,-15.0526 -1.533094,-1.49375 -3.488763,-3.65779 -4.345932,-4.80898 l -1.558488,-2.09307 0.426979,-7.62694 c 0.810687,-14.48099 2.968038,-27.4047 6.945604,-41.60793 2.799696,-9.99725 7.386556,-22.34436 11.538141,-31.058863 l 2.198914,-4.615691 3.095862,-2.113868 c 11.027681,-7.529739 23.154981,-11.972826 35.909372,-13.156137 1.51834,-0.140868 1.96816,-0.04523 2.48779,0.52896 0.34888,0.385507 0.56782,0.755512 0.48653,0.822236 -0.0813,0.06672 -2.57779,0.940662 -5.5478,1.942085 -10.318028,3.479029 -18.411276,7.365118 -26.100023,12.532302 -7.8286,5.261173 -8.403497,6.171679 -1.808421,2.864125 9.583579,-4.806347 21.306487,-8.72656 31.148454,-10.416235 27.90217,-4.790268 53.5325,-1.532295 76.52462,9.727348 3.0127,1.475372 5.55094,2.609189 5.64053,2.519595 0.27161,-0.271614 -4.0349,-3.48786 -8.10704,-6.054614 -6.58263,-4.14915 -16.91566,-8.92764 -24.73807,-11.440061 -1.386,-0.44516 -2.64256,-0.92 -2.79237,-1.0552 -0.14981,-0.135201 0.1742,-0.667154 0.72,-1.182116 0.97796,-0.922698 1.04003,-0.931788 4.27404,-0.625879 6.39313,0.604736 13.7157,2.53907 20.65836,5.457131 4.43066,1.862242 7.89659,3.74279 12.72911,6.906573 3.81825,2.499756 3.94062,2.621976 5.26529,5.259234 5.21861,10.389671 10.71709,25.604235 14.0102,38.766915 3.31195,13.23802 5.03383,24.89879 5.63779,38.17963 l 0.2495,5.48646 -1.56327,2.07354 c -0.8598,1.14044 -2.68262,3.16786 -4.05072,4.50538 -9.32484,9.11632 -21.49739,14.3036 -36.44893,15.53257 l -2.55102,0.20967 -4.71673,-5.80383 -4.71673,-5.80382 3.30774,-1.15755 c 6.23542,-2.18207 12.93845,-6.03632 17.29974,-9.94736 2.32319,-2.08334 5.76762,-6.06194 5.48914,-6.34043 -0.097,-0.097 -1.52298,0.63257 -3.16876,1.62134 -8.15561,4.89976 -20.19446,9.74572 -29.63238,11.92784 -20.14818,4.65839 -40.24073,3.35 -60.724297,-3.95428 -5.927658,-2.11374 -14.034353,-5.91982 -17.883778,-8.39639 -1.456402,-0.93697 -2.717401,-1.63421 -2.80222,-1.54939 -0.287298,0.28729 2.614798,3.65696 5.336748,6.19657 4.547191,4.24258 10.799339,7.99869 16.900682,10.15345 1.55702,0.54988 2.831363,1.13133 2.831878,1.29212 3.52e-4,0.16079 -2.064566,2.86615 -4.589068,6.01193 -3.789357,4.72191 -4.746994,5.7144 -5.490006,5.68983 -0.495,-0.0164 -2.25965,-0.17188 -3.921441,-0.3456 z m 22.306122,-35.8003 c 9.17305,-2.68235 13.7524,-14.04216 9.40538,-23.33154 -1.54061,-3.29219 -3.91051,-5.70039 -7.21878,-7.33543 -2.56337,-1.26688 -2.90571,-1.34129 -6.17127,-1.34129 -3.260394,0 -3.61008,0.0756 -6.138672,1.32801 -1.474734,0.7304 -3.278689,1.9454 -4.008791,2.7 -2.985825,3.08601 -4.972548,7.94918 -4.972548,12.17201 0,5.60442 3.187673,11.57651 7.555305,14.15485 3.728135,2.20082 7.721996,2.77257 11.549376,1.65339 z m 55.19971,-0.62559 c 4.06736,-1.8621 7.78076,-6.50865 8.82498,-11.04265 0.47534,-2.06388 0.47982,-6.19718 0.009,-8.23977 -0.90628,-3.93115 -4.06362,-8.35046 -7.33611,-10.26827 -3.41609,-2.00196 -7.61611,-2.48564 -11.38855,-1.31152 -5.70838,1.77665 -9.85512,6.85734 -10.74964,13.17072 -1.13511,8.01147 3.25692,15.64249 10.49318,18.23161 2.7449,0.98212 7.35864,0.73654 10.14722,-0.54012 z"
     id="path323" />
</svg>
