<svg xmlns="http://www.w3.org/2000/svg" xmlns:xlink="http://www.w3.org/1999/xlink" viewBox="0 0 136.38 136.38" version="1.1" width="136">
    <path style=" stroke:none;fill-rule:nonzero;fill:rgb(11.767578%,28.637695%,53.318787%);fill-opacity:1;"
        d="M 11.890625 25.609375 C 11.890625 25.609375 -4.03125 49.941406 0.972656 72.226563 C 5.976563 94.511719 16.890625 104.746094 26.441406 107.703125 L 26.441406 124.527344 C 26.441406 124.527344 41.222656 137.035156 67.375 136.351563 C 93.527344 135.671875 107.398438 117.027344 108.765625 109.976563 L 125.363281 110.882813 C 125.363281 110.882813 158.5625 54.714844 111.945313 27.425781 L 112.175781 11.28125 C 112.175781 11.28125 53.277344 -22.148438 29.171875 26.0625 ">
    </path>
    <path xmlns="http://www.w3.org/2000/svg"
        style=" stroke:none;fill-rule:nonzero;fill:rgb(100%,100%,100%);fill-opacity:1;"
        d="M 115.203125 68.371094 C 112.703125 89.972656 98.378906 92.929688 98.378906 92.929688 C 99.289063 76.101563 77.683594 65.640625 77.683594 65.640625 C 86.324219 37.21875 117.707031 46.765625 115.203125 68.371094 M 68.125 114.382813 C 46.519531 111.882813 43.566406 97.554688 43.566406 97.554688 C 60.394531 98.464844 70.851563 76.859375 70.851563 76.859375 C 99.277344 85.503906 89.726563 116.882813 68.125 114.382813 M 22.5625 67.300781 C 25.0625 45.695313 39.390625 42.738281 39.390625 42.738281 C 38.480469 59.566406 60.085938 70.027344 60.085938 70.027344 C 51.445313 98.453125 20.0625 88.902344 22.5625 67.300781 M 68.96875 21.515625 C 90.570313 24.015625 93.527344 38.34375 93.527344 38.34375 C 76.699219 37.433594 66.238281 59.035156 66.238281 59.035156 C 37.8125 50.394531 47.363281 19.011719 68.96875 21.515625 M 102.945313 32.375 L 102.5625 18.976563 C 102.5625 18.976563 52.53125 -6.664063 34.246094 34.167969 L 19.898438 34.40625 C 19.898438 34.40625 7.558594 55.148438 12.496094 73.453125 C 17.433594 91.761719 26.847656 99.859375 34.871094 101.96875 L 35.46875 115.929688 C 35.46875 115.929688 48.167969 125.777344 69.835938 124.289063 C 91.5 122.796875 102.34375 106.839844 103.226563 100.941406 L 117.023438 101.109375 C 117.023438 101.109375 142.570313 53.351563 102.945313 32.375 ">
    </path>
</svg>