<?xml version="1.0" encoding="UTF-8" standalone="no"?>
<!-- Created with Inkscape (http://www.inkscape.org/) -->

<svg
   version="1.1"
   id="svg1559"
   width="192.035"
   height="191.99966"
   viewBox="0 0 192.035 191.99966"
   xml:space="preserve"
   xmlns="http://www.w3.org/2000/svg"
   xmlns:svg="http://www.w3.org/2000/svg"><defs
     id="defs1563"><clipPath
       clipPathUnits="userSpaceOnUse"
       id="clipPath1575"><path
         d="M 0,332.698 H 1036.087 V 0 H 0 Z"
         id="path1573" /></clipPath></defs><g
     id="g1567"
     transform="matrix(1.3333333,0,0,-1.3333333,-3.9999988,439.59733)"><g
       id="g1569"
       transform="matrix(1.0000021,0,0,1,-91.373249,91.320306)"><g
         id="g1571"
         clip-path="url(#clipPath1575)"><g
           id="g1585"
           transform="translate(164.6403,153.1877)"
           style="fill:#c01f25;fill-opacity:1"><path
             d="m 0,0 c 0,2.497 -0.979,4.848 -2.755,6.617 l -2.056,2.059 c -4.729,4.711 -7.345,10.999 -7.349,17.691 -10e-4,6.696 2.615,12.991 7.363,17.726 l 27.378,27.372 -8.668,8.664 c -6.703,6.748 -17.631,6.748 -24.336,0 L -65.207,25.354 c -6.747,-6.727 -6.747,-17.625 0,-24.343 l 35.044,-35.045 27.396,27.392 C -0.979,-4.858 0.001,-2.503 0,0"
             style="fill:#c01f25;fill-opacity:1;fill-rule:nonzero;stroke:none"
             id="path1587" /></g><g
           id="g1589"
           transform="translate(233.341,178.5417)"
           style="fill:#ec1d25;fill-opacity:1"><path
             d="M 0,0 -35.047,35.039 -62.435,7.658 c -1.788,-1.783 -2.768,-4.138 -2.767,-6.639 0.002,-2.5 0.979,-4.851 2.755,-6.62 l 2.054,-2.058 c 4.731,-4.71 7.349,-11 7.351,-17.692 0.001,-6.696 -2.614,-12.991 -7.363,-17.726 l -27.387,-27.382 8.668,-8.667 c 6.705,-6.717 17.634,-6.717 24.337,0 L 0,-24.343 C 6.744,-17.625 6.744,-6.727 0,0"
             style="fill:#ec1d25;fill-opacity:1;fill-rule:nonzero;stroke:none"
             id="path1591" /></g></g></g></g></svg>
