<svg xmlns="http://www.w3.org/2000/svg" viewBox="0 0 189.92 192">
    <path
        d="M173.59,95.94c0,44.14-35.9,79.74-80.38,79.73-43.55,0-79.09-36.21-79.07-80.53,0-43.49,36.27-79,80.62-79C137.79,16.19,173.59,52.42,173.59,95.94Zm-80,62.84c34.28.15,63.1-28.58,63.08-62.88,0-34.14-28.44-62.64-62.65-62.84-34-.2-62.6,28.15-63,62.48C30.6,129.59,59.35,158.64,93.62,158.78Z"
        style="fill:#e53e4b" />
    <path
        d="M61.41,139.28C42.39,124,35.84,99,44.07,76.33,50.8,57.78,69.76,39.51,99.85,41.07c21.65,1.12,39.76,15.5,46.35,37.69,6.48,21.81-.64,47.39-16.79,58.75,7.29-22.54,1.59-40-19.6-50.61C96,80,78.92,83.62,67.89,94.69,58.25,104.37,52.1,120.73,61.41,139.28Z"
        style="fill:#e53e4b" />
    <path
        d="M108.05,146.81c3.68-8.35,2.3-14.89-4.12-20a14.58,14.58,0,0,0-17.26-.7C80.28,130.2,78.31,136,80,145.74c-11.24-5.69-17-19.38-13.7-32.78C69.41,100.24,81.32,91,95,90.76c13.86-.27,24.49,8.17,28.07,22.27A29.54,29.54,0,0,1,108.05,146.81Z"
        style="fill:#e53e4b" />
</svg>