<svg xmlns="http://www.w3.org/2000/svg" width="2500" height="2500" viewBox="0 0 192.756 192.756">

    <path
        d="M174.67 121.896c-4.57 0-8.1 3.527-8.1 7.982 0 4.512 3.529 8.041 8.1 8.041 4.512 0 8.098-3.529 8.098-8.041 0-4.396-3.586-7.982-8.098-7.982zm-.232 1.389h.232c3.645 0 6.479 2.893 6.479 6.594 0 3.76-2.834 6.711-6.479 6.711-3.703 0-6.479-2.951-6.479-6.711 0-3.645 2.604-6.479 6.247-6.594zm-2.891 2.024v9.199h1.445v-3.992h1.562l2.43 3.992h1.619L176 130.457c1.562-.174 2.371-1.098 2.371-2.604 0-1.676-1.098-2.545-3.297-2.545h-3.527v.001zm1.445 4.05v-2.893l1.908.057c1.332 0 1.969.406 1.969 1.389 0 .867-.58 1.389-1.621 1.389l-2.256.058z"
        fill-rule="evenodd" clip-rule="evenodd" fill="#fff" />
    <path
        d="M73.09 84.758h46.74V38.076c-12.707.606-24.076 5.948-32.424 14.287-8.369 8.36-13.707 19.743-14.316 32.395zm52.131 0h46.211c.01-12.284.082-36.901.105-44.81-3.033.194-6.039.74-8.898 1.531-4.086 1.132-7.885 2.763-11.051 4.593v.009c-2.979 1.715-5.793 3.42-8.58 5.842-2.82 2.45-5.727 5.707-8.951 10.57l-.008.009c-2.289 3.414-4.15 7.52-5.594 11.433-1.586 4.3-2.652 8.26-3.234 10.823zm46.15 4.859h-46.682v46.738c12.621-.613 23.982-5.979 32.34-14.346 8.366-8.374 13.729-19.759 14.342-32.392zm-51.541 46.738V89.617H73.091c.614 12.623 5.988 24 14.364 32.375 8.375 8.377 19.752 13.75 32.375 14.363zm40.635-10.927c-9.779 9.789-23.285 15.848-38.205 15.848-14.93 0-28.453-6.057-38.242-15.846s-15.846-23.312-15.846-38.243c0-14.947 6.021-28.476 15.817-38.261 9.757-9.746 23.254-15.769 38.27-15.769h2.43v37.052c1.43-3.57 3.197-7.212 5.328-10.39l-.004-.001c3.488-5.261 6.686-8.831 9.824-11.557 3.17-2.755 6.17-4.58 9.32-6.393l.006.007c3.494-2.019 7.682-3.818 12.184-5.066 4.051-1.122 8.352-1.801 12.629-1.801h2.434l-.006 2.43c0 .104-.115 36.56-.115 49.748 0 14.929-6.045 28.451-15.824 38.242z"
        fill="#fff" />
</svg>