<svg xmlns="http://www.w3.org/2000/svg" viewBox="0 0 352.89 80.43" style="&#10;    background: #000;&#10;"><defs><style xmlns="http://www.w3.org/2000/svg">.cls-1{fill:#fff;}.cls-2,.cls-3{fill:#1cff95;}.cls-2{fill-rule:evenodd;}</style></defs><g id="Layer_2" data-name="Layer 2" style="/* background:#000; */"><g id="Layer_1-2" data-name="Layer 1"><path class="cls-1" d="M19,78.72a44.57,44.57,0,0,1-6.77-.46,38.8,38.8,0,0,1-5.25-1.14,19.49,19.49,0,0,1-3.65-1.45,8.05,8.05,0,0,1-2-1.4,4.72,4.72,0,0,1-1-1.4A3.93,3.93,0,0,1,0,71.31a2.69,2.69,0,0,1,.75-2,2.75,2.75,0,0,1,2.06-.75A3.71,3.71,0,0,1,4.64,69a25.29,25.29,0,0,0,3.12,1.35,36.86,36.86,0,0,0,4.73,1.34,34.71,34.71,0,0,0,7.38.64,24.59,24.59,0,0,0,7.37-1,15.32,15.32,0,0,0,5.46-2.92,12.58,12.58,0,0,0,3.37-4.54,14.18,14.18,0,0,0,1.14-5.72,12,12,0,0,0-1.79-6.68A16,16,0,0,0,30.91,47a30.11,30.11,0,0,0-6.13-3.13c-2.25-.85-4.53-1.7-6.78-2.53s-4.51-1.76-6.67-2.76a23.3,23.3,0,0,1-5.61-3.66,16.38,16.38,0,0,1-3.87-5.26A17.87,17.87,0,0,1,.39,22,20.58,20.58,0,0,1,2,13.91a17.75,17.75,0,0,1,4.68-6.4,22.6,22.6,0,0,1,7.81-4.28A34.87,34.87,0,0,1,25.39,1.66a38.52,38.52,0,0,1,5.85.41,30.54,30.54,0,0,1,4.64,1.05,18.84,18.84,0,0,1,3.38,1.4,8.68,8.68,0,0,1,2,1.34,4.09,4.09,0,0,1,1,1.35,4.07,4.07,0,0,1,.25,1.52,2.55,2.55,0,0,1-.74,2,3,3,0,0,1-2.12.72A4.47,4.47,0,0,1,37.75,11c-.79-.36-1.77-.76-2.89-1.2a29.8,29.8,0,0,0-4.21-1.23A29.22,29.22,0,0,0,24.47,8a22.83,22.83,0,0,0-6.8.92,14.65,14.65,0,0,0-5,2.63,10.69,10.69,0,0,0-3.08,4.13,13,13,0,0,0-1,5.11,10.63,10.63,0,0,0,1.78,6.26,15.23,15.23,0,0,0,4.53,4.14,32.31,32.31,0,0,0,6.14,2.89c2.17.77,4.44,1.6,6.74,2.46s4.5,1.8,6.64,2.84A22.94,22.94,0,0,1,40,43.24a17,17,0,0,1,3.91,5.57,19.9,19.9,0,0,1,1.47,8.13,22.67,22.67,0,0,1-1.67,8.81,18.54,18.54,0,0,1-4.94,6.84,23.29,23.29,0,0,1-8.24,4.51A37.81,37.81,0,0,1,19,78.72Z"/><path class="cls-1" d="M117.41,78.05a4.61,4.61,0,0,1-3.18-.89,3.34,3.34,0,0,1-.92-2.59V55H73.47V74.57a3.3,3.3,0,0,1-.93,2.58,4.63,4.63,0,0,1-3.17.9,4.61,4.61,0,0,1-3.18-.89,3.34,3.34,0,0,1-.92-2.59V5.87a3.34,3.34,0,0,1,.92-2.59,4.61,4.61,0,0,1,3.18-.89,4.63,4.63,0,0,1,3.17.9,3.29,3.29,0,0,1,.93,2.58V48.65h39.84V5.87a3.34,3.34,0,0,1,.92-2.59,6.08,6.08,0,0,1,6.35,0,3.29,3.29,0,0,1,.93,2.58v68.7a3.3,3.3,0,0,1-.93,2.58A4.62,4.62,0,0,1,117.41,78.05Z"/><path class="cls-1" d="M352.06,3.93a4.81,4.81,0,0,0-3.21-.84,4.64,4.64,0,0,0-3.17.83,3,3,0,0,0-.83,2.49V48.16a31.91,31.91,0,0,1-1.44,10.12,21,21,0,0,1-4.1,7.33,16.63,16.63,0,0,1-6.38,4.44,21.54,21.54,0,0,1-7.8,1.39A22.29,22.29,0,0,1,317,70a17,17,0,0,1-6.63-4.64,21.14,21.14,0,0,1-4.23-7.85,35,35,0,0,1-1.38-8.93c0-.62,0-1.24,0-1.87V6.41a3,3,0,0,0-.84-2.48,3.17,3.17,0,0,0-1.5-.67l-.51-.09-.29,0c-.31,0-.61,0-.88,0h-.08a8.3,8.3,0,0,0-1,.05h-.06a7.05,7.05,0,0,0-.8.15l-.11,0a3.38,3.38,0,0,0-.63.23l-.06,0a2.54,2.54,0,0,0-.54.36,3,3,0,0,0-.85,2.47V48.33c0,.48,0,1,0,1.43a30.23,30.23,0,0,1-1.4,8.52,20.64,20.64,0,0,1-4.1,7.33,16.48,16.48,0,0,1-6.38,4.44A21.52,21.52,0,0,1,277,71.44,22.25,22.25,0,0,1,268.84,70a17,17,0,0,1-6.64-4.64A21,21,0,0,1,258,57.5a37.34,37.34,0,0,1-1.43-11V6.41a3.07,3.07,0,0,0-.83-2.48,6.42,6.42,0,0,0-6.37,0,3.07,3.07,0,0,0-.84,2.47V48.33a40.11,40.11,0,0,0,1.87,12.85,23,23,0,0,0,5.26,8.88,21.88,21.88,0,0,0,8.5,5.29,36.48,36.48,0,0,0,12.1,1.83,36,36,0,0,0,12.12-1.91,22.28,22.28,0,0,0,12-9.81,21.07,21.07,0,0,0,3.37,4.6,21.88,21.88,0,0,0,8.5,5.29,36.54,36.54,0,0,0,12.11,1.83,35.91,35.91,0,0,0,12.11-1.91,22.81,22.81,0,0,0,8.82-5.57,25,25,0,0,0,5.58-9.37,41.84,41.84,0,0,0,2-13.63V6.41A3.09,3.09,0,0,0,352.06,3.93Z"/><path class="cls-2" d="M229.38,25.46a9.59,9.59,0,0,0-.89-.8l-.12-.1a9.83,9.83,0,0,0-.83-.61l-.17-.12c-.3-.2-.61-.38-.93-.55l-.06,0a12.89,12.89,0,0,0-2.21-.92l-.15,0c-.33-.1-.67-.18-1-.25l-.16,0-.31-.06a24.88,24.88,0,0,0-3-.31v0l0,0h-.64A35.13,35.13,0,0,0,213,12.39c-10.44-12-28.7-15.77-43.15-9.14a36.22,36.22,0,0,0-18.39,18.36h-.68l0,0v0a24.61,24.61,0,0,0-3,.31l-.31.06-.16,0c-.35.07-.68.15-1,.25l-.14,0a12.26,12.26,0,0,0-2.21.92l-.06,0c-.32.17-.63.35-.94.55l-.17.12c-.28.19-.55.39-.82.61l-.13.1c-.3.25-.6.51-.89.8a12.65,12.65,0,0,0-3.7,8.94h0v7.7h0a12.67,12.67,0,0,0,3.7,9c.29.28.59.54.89.8l.13.1.82.61.17.11c.31.2.62.39.94.56l.06,0a12.47,12.47,0,0,0,2.2.92l.15,0c.34.1.67.19,1,.26l.17,0,.31.07a24.61,24.61,0,0,0,3,.31v0l0,0a12,12,0,0,0,4.11-.44,2.81,2.81,0,0,0,1.54-2.5V24.56a2.79,2.79,0,0,0-.29-1.23C168,7.21,191,2.3,208.39,17a36.89,36.89,0,0,1,5.79,6.33,2.81,2.81,0,0,0-.28,1.23V52a2.79,2.79,0,0,0,1.54,2.5,11.92,11.92,0,0,0,4.11.44l0,0v0a24.88,24.88,0,0,0,3-.31l.31-.07.16,0c.34-.07.68-.16,1-.26l.15,0a12.89,12.89,0,0,0,2.21-.92l.06,0c.32-.17.63-.36.93-.56l.17-.11c.29-.2.56-.4.83-.61l.12-.1c.31-.26.61-.52.89-.8a12.64,12.64,0,0,0,3.71-9h0v-7.7h0A12.62,12.62,0,0,0,229.38,25.46Z"/><path class="cls-3" d="M158.85,64.91c8.61,4.53,16.93,7.28,26.32,7.26s17.69-2.75,26.31-7.26A25.33,25.33,0,0,1,200.8,76.33c-13.8,8.32-35.05,3.71-42-11.42Z"/></g></g></svg>