<?xml version="1.0" encoding="UTF-8"?><svg id="a" xmlns="http://www.w3.org/2000/svg" viewBox="0 0 67.88 70.01"><defs><style>.b{fill:#fff;}.c{fill:#673b8f;}</style></defs><polygon class="b" points="10.54 6.31 10.54 51.02 25.44 51.02 25.44 60.5 33.45 51.5 50.29 50.99 51.42 50.52 61.11 40.87 61.61 39.65 61.6 6.31 10.54 6.31"/><path class="c" d="M17,69.95v-8.37H.04c-.02-.35-.04-.62-.04-.89C0,44.94,0,29.19,0,13.44c0-.46,.08-.93,.22-1.36C1.48,8.27,2.76,4.48,4.01,.67,4.17,.17,4.38,0,4.92,0c20.75,.02,41.5,.01,62.25,.01,.2,0,.41,0,.7,0,0,.33,0,.6,0,.88,0,13.57,0,27.15,.01,40.72,0,.57-.17,.96-.57,1.36-6.02,6-12.03,12.01-18.03,18.03-.4,.4-.79,.57-1.35,.56-3.65-.03-7.31,0-10.96-.03-.7,0-1.2,.18-1.7,.69-2.41,2.46-4.85,4.89-7.31,7.31-.23,.23-.6,.46-.91,.46-3.26,.03-6.53,.02-9.79,.02-.07,0-.14-.03-.28-.05ZM10.54,6.31V51.02h14.9v8.47c.23-.22,.36-.34,.48-.46,2.51-2.51,5.03-5.01,7.53-7.53,.36-.36,.71-.51,1.22-.5,5.21,.02,10.41,.02,15.62-.01,.38,0,.86-.2,1.13-.47,3.25-3.2,6.46-6.44,9.69-9.65,.36-.36,.49-.72,.49-1.22-.01-10.85,0-21.71,0-32.56v-.78H10.54Z"/><path class="c" d="M33.91,19.19v18.89h-6.3V19.19h6.3Z"/><path class="c" d="M50.85,38.11h-6.18V19.19h6.18v18.92Z"/></svg>